HayghinDaedric-Dozenal.sfdir
StartChar: exclam
Encoding: 33 33 59
Width: 266
VWidth: 1048
Flags: W
HStem: -92 154<108.539 192.682>
VStem: 78 145<-59.875 30.7195 378.454 598.387>
LayerCount: 2
Fore
SplineSet
150 62 m 0
 188 62 223 47 223 9 c 0
 223 -40 189 -92 150 -92 c 0
 117 -92 78 -69 78 -36 c 0
 78 12 114 62 150 62 c 0
154 619 m 0
 204 619 223 594 223 543 c 0
 223 521 223 482 218 448 c 0
 213 407 202 352 188 282 c 1
 168 140 l 1
 139 140 l 1
 120 282 l 1
 106 352 94 407 88 448 c 0
 82 488 78 520 78 542 c 0
 78 568 86 586 100 599 c 0
 113 611 130 619 154 619 c 0
EndSplineSet
Validated: 1
EndChar
StartChar: dollar
Encoding: 36 36 62
Width: 480
Flags: W
HStem: -186 85<59.5622 155.313> 112 41<160.753 237> 469 40<241 242 244 313.646> 722 84<325.255 422.032>
VStem: 42 39<233.105 385.555> 167 61<510.077 688.047> 254 61<-65.4709 111.245> 398 39<234.002 386.933>
LayerCount: 2
Fore
SplineSet
239 149 m 2
 239 148 239 147 240 148 c 0
 240 150 241 150 241 151 c 1
 240 151 l 1
 239 149 l 2
237 509 m 1
 241 509 l 2
 346 509 437 430 437 310 c 0
 437 218 383 148 310 124 c 1
 313 101 315 77 315 58 c 0
 315 -94 233 -186 137 -186 c 0
 102 -186 65 -174 50 -155 c 0
 48 -151 47 -148 47 -143 c 0
 50 -122 60 -101 93 -101 c 0
 110 -101 133 -108 162 -127 c 2
 177 -138 l 1
 227 -110 254 -46 254 22 c 0
 254 47 251 78 245 112 c 1
 241 112 l 2
 134 112 42 192 42 310 c 0
 42 403 95 473 171 498 c 1
 168 520 167 545 167 564 c 0
 167 720 251 802 344 806 c 0
 345 806 347 806 348 806 c 0
 382 806 417 793 431 775 c 0
 433 771 434 767 434 763 c 0
 431 743 421 722 388 722 c 0
 369 722 346 730 319 748 c 2
 304 759 l 1
 254 730 228 666 228 597 c 0
 228 572 231 543 237 509 c 1
241 467 m 1
 242 469 l 1
 241 469 l 1
 241 467 l 1
81 310 m 0
 81 217 154 153 237 153 c 1
 230 191 221 232 213 271 c 2
 207 300 l 2
 196 353 185 405 178 455 c 1
 121 431 81 379 81 310 c 0
398 310 m 0
 398 401 328 467 244 467 c 1
 264 367 l 1
 274 321 l 2
 285 269 296 214 304 166 c 1
 358 189 398 243 398 310 c 0
EndSplineSet
Validated: 1
EndChar
StartChar: comma
Encoding: 44 44 70
Width: 225
VWidth: 1048
Flags: W
HStem: -193 257
VStem: 90 128<-42.4746 43.8667>
LayerCount: 2
Fore
SplineSet
6 -167 m 0
 66 -105 61 -40 90 23 c 0
 104 53 147 64 163 64 c 0
 180 64 218 27 218 5 c 0
 218 -18 209 -55 195 -75 c 0
 164 -120 106 -152 25 -193 c 0
 17 -196 9 -194 4 -188 c 0
 -2 -181 0 -172 6 -167 c 0
EndSplineSet
Validated: 1
EndChar
StartChar: period
Encoding: 46 46 72
Width: 380
Flags: HW
HStem: -144 94<142.013 243.684> 87 94<141.437 244.254>
VStem: 34 88<-29.9997 67.5062> 263 88<-29.9997 67.5062>
LayerCount: 2
Fore
SplineSet
193 -144 m 0
 107 -144 34 -70 34 19 c 0
 34 107 107 181 193 181 c 0
 280 181 351 107 351 19 c 0
 351 -70 280 -144 193 -144 c 0
193 87 m 0
 153 87 122 57 122 19 c 0
 122 -19 153 -50 193 -50 c 0
 232 -50 263 -19 263 19 c 0
 263 57 232 87 193 87 c 0
EndSplineSet
Validated: 1
EndChar
StartChar: two
Encoding: 50 50 76
Width: 500
Flags: W
HStem: -191 21G<107 122 307 322> 780 20G<133.5 138 333.5 338> 780 20G<133.5 138 333.5 338>
VStem: 97 49<-190.714 54.9163> 111 128<460.894 625.5> 297 49<-190.714 54.9163> 311 128<460.894 625.5>
LayerCount: 2
Fore
SplineSet
348 788 m 4xc2
 372 728 393 662 408 632 c 4
 423 602 439 582 439 556 c 4xc2
 439 550 380 318 367 209 c 4
 353 87 355 -15 346 -162 c 4
 344 -191 328 -191 316 -191 c 4
 298 -191 297 -92 297 -29 c 4
 297 9 297 48 297 86 c 4xc4
 297 138 298 187 300 236 c 4
 301 312 302 390 303 469 c 4
 304 526 311 569 311 617 c 4
 311 634 310 653 307 673 c 4
 306 681 284 670 286 678 c 4
 300 733 304 756 317 780 c 4xa2
 324 793 331 800 336 800 c 4
 340 800 344 796 348 788 c 4xc2
148 788 m 4
 172 728 193 662 208 632 c 4
 223 602 239 582 239 556 c 4xc8
 239 550 180 318 167 209 c 4
 153 87 155 -15 146 -162 c 4
 144 -191 128 -191 116 -191 c 4
 98 -191 97 -92 97 -29 c 4
 97 9 97 48 97 86 c 4xd0
 97 138 98 187 100 236 c 4
 101 312 102 390 103 469 c 4
 104 526 111 569 111 617 c 4
 111 634 110 653 107 673 c 4
 106 681 84 670 86 678 c 4
 100 733 104 756 117 780 c 4xa8
 124 793 131 800 136 800 c 4
 140 800 144 796 148 788 c 4
EndSplineSet
Validated: 1
EndChar
StartChar: three
Encoding: 51 51 77
Width: 716
VWidth: 1048
Flags: W
HStem: -204 21G<135.5 151.5 319.5 335.5 504.5 520.5> 689 20G<159.5 164 344.5 349 528.5 533> 689 20G<159.5 164 344.5 349 528.5 533>
VStem: 127 45<-203.934 37.1345> 139 118<389.525 542.736> 311 45<-203.934 37.1345> 324 118<389.925 541.526> 495 45<-203.934 37.1345> 508 118<389.525 541.506>
LayerCount: 2
Fore
SplineSet
542 698 m 0xc080
 564 643 583 582 597 554 c 0
 611 526 626 508 626 484 c 0xc080
 626 478 572 264 560 164 c 0
 547 52 540 -43 540 -178 c 0
 540 -203 526 -204 515 -204 c 0
 515 -204 514 -204 513 -204 c 0
 496 -204 495 -113 495 -55 c 0
 495 -20 495 16 495 51 c 0xc1
 495 99 498 144 498 189 c 0
 498 259 501 331 501 404 c 0
 501 457 508 496 508 540 c 0
 508 556 507 574 504 592 c 0
 503 599 483 590 485 597 c 0
 498 648 502 667 514 689 c 0xa080
 520 701 526 709 531 709 c 0
 535 709 538 705 542 698 c 0xc080
358 698 m 0
 380 643 399 582 413 554 c 0
 427 526 442 508 442 484 c 0xc2
 442 478 387 264 375 164 c 0
 362 52 356 -43 356 -178 c 0
 356 -203 341 -204 330 -204 c 0
 330 -204 329 -204 328 -204 c 0
 311 -204 311 -113 311 -55 c 0
 311 -20 311 16 311 51 c 0xc4
 311 99 314 144 314 189 c 0
 314 259 316 331 316 404 c 0
 316 457 324 496 324 540 c 0
 324 556 323 574 320 592 c 0
 319 599 299 590 301 597 c 0
 314 648 317 667 329 689 c 0xa2
 335 701 342 709 347 709 c 0
 351 709 354 705 358 698 c 0
174 698 m 0
 196 643 215 582 229 554 c 0
 243 526 257 508 257 484 c 0xc8
 257 478 203 264 191 164 c 0
 178 52 172 -43 172 -178 c 0
 172 -203 157 -204 146 -204 c 0
 146 -204 145 -204 144 -204 c 0
 127 -204 127 -113 127 -55 c 0
 127 -20 127 16 127 51 c 0
 127 99 127 144 127 189 c 0xd0
 127 259 132 331 132 404 c 0
 132 457 139 496 139 540 c 0
 139 556 139 574 136 592 c 0
 135 599 114 590 116 597 c 0
 129 648 133 667 145 689 c 0xa8
 151 701 157 709 162 709 c 0
 166 709 170 705 174 698 c 0
EndSplineSet
Validated: 1
EndChar
StartChar: four
Encoding: 52 52 78
Width: 551
Flags: W
HStem: -204 21G<360 373.5> 308 119<133.318 286.959> 689 20G<383.5 387.5> 689 20G<383.5 387.5>
VStem: 351 44<-203.74 32.8764> 365 113<439.894 548.27>
LayerCount: 2
Fore
SplineSet
354 304 m 4xe8
 350 317 299 318 290 318 c 6
 287 318 l 5
 287 318 231 308 215 308 c 4
 156 308 103 338 91 382 c 4
 85 406 64 418 64 429 c 4
 64 433 68 434 75 434 c 4
 92 434 121 427 138 427 c 6
 172 427 l 6
 199 427 294 428 294 428 c 5
 294 428 352 432 358 448 c 20
 364 465 365 480 365 494 c 4
 365 511 365 528 365 545 c 4
 365 560 362 577 360 595 c 4
 359 602 339 592 341 600 c 4
 353 649 357 668 369 689 c 4xd4
 375 701 381 709 386 709 c 4
 389 709 393 704 397 697 c 4
 418 643 437 585 451 558 c 4
 464 531 478 513 478 490 c 4xe4
 478 484 425 255 414 157 c 4
 401 47 403 -45 395 -177 c 4
 393 -203 379 -204 368 -204 c 4
 352 -204 351 -114 351 -58 c 6
 351 202 l 5
 352 223 361 244 361 267 c 4
 361 278 359 291 354 304 c 4xe8
EndSplineSet
Validated: 1
EndChar
StartChar: five
Encoding: 53 53 79
Width: 788
VWidth: 1048
Flags: W
HStem: -204 21G<360 373.5 563.5 579.5> 308 119<133.318 286.959> 689 20G<383.5 387.5 587.5 592> 689 20G<383.5 387.5 587.5 592>
VStem: 351 44<-203.74 32.8764> 365 113<439.894 548.27> 554 45<-203.934 37.1345> 567 118<389.525 541.506>
LayerCount: 2
Fore
SplineSet
354 304 m 0xe8
 350 317 299 318 290 318 c 2
 287 318 l 1
 287 318 231 308 215 308 c 0
 156 308 103 338 91 382 c 0
 85 406 64 418 64 429 c 0
 64 433 68 434 75 434 c 0
 92 434 121 427 138 427 c 2
 172 427 l 2
 199 427 294 428 294 428 c 1
 294 428 352 432 358 448 c 16
 364 465 365 480 365 494 c 0
 365 511 365 528 365 545 c 0
 365 560 362 577 360 595 c 0
 359 602 339 592 341 600 c 0
 353 649 357 668 369 689 c 0xd4
 375 701 381 709 386 709 c 0
 389 709 393 704 397 697 c 0
 418 643 437 585 451 558 c 0
 464 531 478 513 478 490 c 0xe4
 478 484 425 255 414 157 c 0
 401 47 403 -45 395 -177 c 0
 393 -203 379 -204 368 -204 c 0
 352 -204 351 -114 351 -58 c 2
 351 202 l 1
 352 223 361 244 361 267 c 0
 361 278 359 291 354 304 c 0xe8
601 698 m 0
 623 643 642 582 656 554 c 0
 670 526 685 508 685 484 c 0xe1
 685 478 631 264 619 164 c 0
 606 52 599 -43 599 -178 c 0
 599 -203 585 -204 574 -204 c 0
 574 -204 573 -204 572 -204 c 0
 555 -204 554 -113 554 -55 c 0
 554 -20 554 16 554 51 c 0xe2
 554 99 557 144 557 189 c 0
 557 259 560 331 560 404 c 0
 560 457 567 496 567 540 c 0
 567 556 566 574 563 592 c 0
 562 599 542 590 544 597 c 0
 557 648 560 667 572 689 c 0xd1
 578 701 585 709 590 709 c 0xe1
 594 709 597 705 601 698 c 0
EndSplineSet
Validated: 1
EndChar
StartChar: six
Encoding: 54 54 80
Width: 1002
VWidth: 1048
Flags: W
HStem: -204 21G<360 373.5 540.5 556.5> 296 122<717.056 863.055> 308 119<133.318 286.959> 689 20G<383.5 387.5 564 569> 689 20G<383.5 387.5 564 569>
VStem: 351 44<-203.74 32.8764> 365 113<439.894 548.27> 531 45<-203.934 37.1345> 537 108<423.519 483.981> 544 118<484 542.736>
LayerCount: 2
Fore
SplineSet
925 426 m 0xd080
 931 426 933 424 933 420 c 0
 933 409 911 397 905 372 c 0
 900 353 888 337 869 322 c 0
 850 308 807 296 778 296 c 0xd080
 761 296 740 304 721 304 c 0
 701 304 655 308 655 308 c 1
 655 308 653 308 651 308 c 0xa080
 642 308 620 308 615 296 c 0
 595 243 601 202 596 164 c 0
 583 52 576 -43 576 -178 c 0
 576 -203 562 -204 551 -204 c 0
 551 -204 550 -204 549 -204 c 0
 532 -204 531 -113 531 -55 c 2
 531 51 l 2xc1
 531 99 534 144 534 189 c 0
 534 259 537 331 537 404 c 0xc080
 537 456 544 496 544 539 c 0
 544 557 544 574 541 592 c 0
 540 599 519 590 521 597 c 0
 534 648 538 667 550 689 c 0xc840
 556 700 561 709 567 709 c 0
 571 709 574 705 578 698 c 0
 600 643 620 582 634 554 c 0
 648 526 662 508 662 484 c 0x9040
 662 484 645 458 645 441 c 0
 645 437 645 434 647 432 c 0
 658 419 717 419 717 419 c 1
 717 419 794 418 822 418 c 2
 857 418 l 2
 885 418 913 426 925 426 c 0xd080
354 304 m 0
 350 317 299 318 290 318 c 2
 287 318 l 1
 287 318 231 308 215 308 c 0
 156 308 103 338 91 382 c 0
 85 406 64 418 64 429 c 0
 64 433 68 434 75 434 c 0
 92 434 121 427 138 427 c 2
 172 427 l 2
 199 427 294 428 294 428 c 1
 294 428 352 432 358 448 c 16
 364 465 365 480 365 494 c 0
 365 511 365 528 365 545 c 0
 365 560 362 577 360 595 c 0
 359 602 339 592 341 600 c 0
 353 649 357 668 369 689 c 0xaa
 375 701 381 709 386 709 c 0
 389 709 393 704 397 697 c 0
 418 643 437 585 451 558 c 0
 464 531 478 513 478 490 c 0x92
 478 484 425 255 414 157 c 0
 401 47 403 -45 395 -177 c 0
 393 -203 379 -204 368 -204 c 0
 352 -204 351 -114 351 -58 c 2
 351 202 l 1x94
 352 223 361 244 361 267 c 0
 361 278 359 291 354 304 c 0
EndSplineSet
Validated: 1
EndChar
StartChar: seven
Encoding: 55 55 81
Width: 770
Flags: W
HStem: -191 21G<117 132 567 582> 352 132<308.061 462.815> 780 20G<143 148 593.5 598> 780 20G<143 148 593.5 598>
VStem: 107 49<-190.714 54.9163> 113 117<490.545 555.979> 121 128<556 614.822> 557 49<-190.714 54.9163> 571 128<460.894 625.5>
LayerCount: 2
Fore
SplineSet
138 788 m 0xe080
 162 728 183 662 198 632 c 0
 213 602 229 582 229 556 c 0xe080
 229 550 170 318 157 209 c 0
 143 87 145 -15 136 -162 c 0
 134 -191 118 -191 106 -191 c 0
 88 -191 87 -92 87 -29 c 0
 87 9 87 48 87 86 c 0xe1
 87 138 88 187 90 236 c 0
 91 312 92 390 93 469 c 0
 94 526 101 569 101 617 c 0
 101 634 100 653 97 673 c 0
 96 681 74 670 76 678 c 0
 90 733 94 756 107 780 c 0xd080
 114 793 121 800 126 800 c 0
 130 800 134 796 138 788 c 0xe080
694 493 m 0
 700 493 703 490 703 486 c 0
 703 474 679 461 672 434 c 0
 667 413 654 396 633 380 c 0
 612 365 567 352 535 352 c 0
 517 352 494 359 473 360 c 0
 451 361 401 366 401 366 c 1
 401 366 364 366 358 350 c 0
 336 293 342 250 337 209 c 0
 323 87 325 -15 316 -162 c 0
 314 -191 298 -191 286 -191 c 0
 268 -191 267 -92 267 -29 c 2
 267 86 l 2xe8
 267 138 268 187 270 236 c 0
 271 312 272 390 273 469 c 0xe4
 274 525 281 569 281 616 c 0
 281 635 280 653 277 673 c 0
 276 681 254 670 256 678 c 0
 270 733 274 756 287 780 c 0xd2
 294 792 300 800 306 800 c 0
 310 800 314 796 318 788 c 0
 342 728 363 662 378 632 c 0
 393 602 409 582 409 556 c 0xe2
 409 556 390 527 390 509 c 0xe4
 390 505 391 501 393 499 c 0
 405 485 468 485 468 485 c 1
 468 485 552 484 582 484 c 2
 620 484 l 2
 650 484 681 493 694 493 c 0
EndSplineSet
Validated: 1
EndChar
StartChar: colon
Encoding: 58 58 84
Width: 208
VWidth: 1048
Flags: W
HStem: -92 154<74.8997 158.682> 290 154<75.5387 159.682>
VStem: 45 144<-59.5 31 320.447 411.842>
LayerCount: 2
Fore
SplineSet
116 62 m 0
 154 62 189 48 189 9 c 0
 189 -39 156 -92 116 -92 c 0
 84 -92 45 -69 45 -36 c 0
 45 12 80 62 116 62 c 0
117 444 m 0
 155 444 190 428 190 390 c 0
 190 342 156 290 117 290 c 0
 84 290 45 313 45 345 c 0
 45 394 81 444 117 444 c 0
EndSplineSet
Validated: 1
EndChar
StartChar: semicolon
Encoding: 59 59 85
Width: 208
VWidth: 1048
Flags: W
HStem: -187 27<50.5708 77.6155> -75 139<65.0472 131.436> 289 154<74.9866 159.252>
VStem: 45 145<321.125 411.719> 132 67<-134.235 -21>
LayerCount: 2
Fore
SplineSet
117 443 m 0xf0
 154 443 190 428 190 390 c 0
 190 341 155 289 117 289 c 0
 83 289 45 312 45 345 c 0
 45 394 81 443 117 443 c 0xf0
45 -12 m 0
 45 33 79 64 109 64 c 0
 137 64 167 53 183 37 c 1
 196 13 199 -4 199 -38 c 0
 199 -130 193 -137 153 -163 c 0
 124 -182 87 -183 64 -187 c 0
 52 -189 42 -170 48 -160 c 0
 59 -142 132 -151 132 -96 c 0xe8
 132 -86 93 -75 93 -75 c 2
 75 -65 45 -46 45 -12 c 0
EndSplineSet
Validated: 1
EndChar
StartChar: question
Encoding: 63 63 89
Width: 400
Flags: W
HStem: -104 170<78.2229 192.953>
VStem: 50 170<-76.7773 37.7771> 90 66<184.875 241.623> 318 54<424.405 527.937>
LayerCount: 2
Fore
SplineSet
136 66 m 0xd0
 160 66 180 57 196 41 c 0
 212 24 220 4 220 -20 c 0
 220 -43 212 -63 196 -80 c 0
 180 -96 160 -104 136 -104 c 0
 112 -104 92 -96 75 -80 c 0
 59 -63 50 -43 50 -20 c 0
 50 4 59 24 75 41 c 0
 92 57 112 66 136 66 c 0xd0
302 528 m 1
 122 555 l 2
 91 560 70 568 58 580 c 0
 46 592 40 606 40 624 c 0
 40 643 45 658 55 669 c 0
 65 679 80 687 100 692 c 1
 127 686 156 677 187 663 c 0
 218 650 248 633 276 612 c 0
 304 591 327 566 345 538 c 0
 363 510 372 478 372 444 c 0
 372 404 362 371 344 346 c 0
 324 321 297 301 262 287 c 2
 216 270 l 2
 193 258 177 249 170 242 c 0
 162 234 157 223 156 207 c 2
 154 156 l 1
 122 156 l 1
 108 198 l 2
 103 218 98 234 95 246 c 0
 92 259 90 270 90 280 c 0xb0
 90 300 97 317 110 330 c 0
 123 343 146 356 178 368 c 2
 240 391 l 2
 270 403 290 415 301 426 c 0
 313 438 318 454 318 475 c 0
 318 494 312 511 302 528 c 1
EndSplineSet
Validated: 1
EndChar
StartChar: A
Encoding: 65 65 0
Width: 770
VWidth: 0
Flags: W
HStem: -199 21G<415 423.5> 737 76<601.465 685.567> 746 54<68.8389 210.999 305.804 471.991>
VStem: 99 147<265.159 517.896> 407 96<494.835 631.424>
LayerCount: 2
Fore
SplineSet
440 746 m 2xb8
 346 746 l 2
 293 746 246 648 246 436 c 0
 246 291 269 163 332 13 c 0
 336 3 366 -50 385 -50 c 0
 396 -50 427 8 462 57 c 0
 477 81 492 107 509 107 c 0
 517 107 528 91 528 82 c 0
 528 80 528 79 527 78 c 0
 493 13 451 -109 442 -179 c 0
 441 -194 427 -199 420 -199 c 0
 410 -199 346 -123 327 -90 c 0
 253 31 99 210 99 392 c 0
 99 512 150 588 212 697 c 0
 215 702 217 707 217 711 c 0
 217 736 165 742 113 746 c 0
 82 749 68 757 68 775 c 0
 68 792 89 800 132 800 c 2
 429 800 l 2xb8
 448 800 524 793 546 793 c 0
 555 793 661 813 670 813 c 0
 692 813 701 806 701 787 c 0
 701 766 679 750 644 737 c 0xd8
 555 704 503 631 503 531 c 0
 503 508 509 468 509 445 c 0
 509 433 507 425 503 425 c 0
 463 425 407 508 407 574 c 0
 407 652 472 715 472 728 c 0
 472 739 459 746 440 746 c 2xb8
EndSplineSet
Validated: 1
EndChar
StartChar: D
Encoding: 68 68 3
Width: 510
Flags: W
HStem: -92 21G<73 88.5> 635 56<252.581 355.946>
VStem: 61 36<-91.8257 298.88> 323 48<360.108 480.307> 409 76<276.725 500.982>
LayerCount: 2
Fore
SplineSet
334 635 m 0
 123 635 97 294 97 100 c 2
 97 -47 l 10
 97 -65 96 -92 81 -92 c 0
 65 -92 61 -78 61 -46 c 10
 61 657 l 2
 61 670 78 676 111 676 c 2
 247 676 l 2
 304 676 324 691 341 691 c 0
 355 691 371 675 383 659 c 0
 449 571 485 458 485 366 c 0
 485 161 238 -87 203 -87 c 0
 193 -87 188 -84 188 -76 c 0
 188 -67 190 -63 197 -55 c 0
 217 -30 254 41 254 112 c 0
 254 124 256 127 264 132 c 0
 345 180 409 270 409 384 c 0
 409 445 400 490 382 550 c 0
 380 557 360 537 360 529 c 0
 360 522 371 490 371 477 c 0
 371 417 356 372 342 347 c 0
 338 339 332 328 323 328 c 8
 316 328 309 332 309 341 c 0
 309 350 323 389 323 409 c 0
 323 444 301 494 272 510 c 0
 264 514 255 520 255 529 c 0
 255 538 266 541 275 543 c 0
 318 552 356 583 356 624 c 0
 356 632 342 635 334 635 c 0
EndSplineSet
Validated: 1
EndChar
StartChar: E
Encoding: 69 69 4
Width: 730
VWidth: 0
Flags: W
HStem: -196 54<261.196 633.985> 262 105<150.995 568.928> 736 54<59.7882 477.259>
VStem: 59 82<-6.84756 254.728> 59 51<419.207 560.021> 584 82<382.757 643.981> 630 36<66.0219 169.002>
LayerCount: 2
Fore
SplineSet
632 790 m 2xec
 654 790 666 779 666 765 c 10
 666 127 l 18
 666 96 665 66 648 66 c 8
 635 66 632 80 630 92 c 0
 614 185 592 262 511 262 c 18
 219 262 l 2
 166 262 141 258 141 205 c 0xf2
 141 -109 215 -142 450 -142 c 10
 598 -142 l 26
 615 -142 635 -155 635 -170 c 8
 635 -187 617 -196 600 -196 c 26
 93 -196 l 18
 69 -196 59 -181 59 -157 c 10
 59 501 l 18
 59 540 65 561 82 561 c 0
 98 561 106 540 110 518 c 0
 124 428 133 367 214 367 c 10
 453 367 l 18
 557 367 584 378 584 436 c 10
 584 524 l 2
 584 654 550 736 320 736 c 2
 104 736 l 2
 72 736 59 747 59 765 c 0
 59 782 81 790 124 790 c 2
 632 790 l 2xec
EndSplineSet
Validated: 1
EndChar
StartChar: F
Encoding: 70 70 5
Width: 800
Flags: W
HStem: -199 21G<104 121.5> 360 113<397 613.291> 746 72<639.061 712.292> 746 53<233.259 470.984> 798 20G<90 111.5>
VStem: 67 51<453.684 599.913> 94 48<-197.77 -36.8712>
LayerCount: 2
Fore
SplineSet
67 513 m 2xd4
 67 768 l 2
 67 782 75 818 105 818 c 0xcc
 118 818 189 799 230 799 c 2
 488 799 l 2xd4
 580 799 643 818 675 818 c 0
 698 818 727 813 727 792 c 0
 727 772 692 753 675 746 c 0
 579 700 484 600 397 473 c 1
 690 473 l 2
 704 473 720 464 720 451 c 0
 725 344 729 272 742 200 c 0
 743 196 743 191 743 185 c 0
 743 168 736 150 722 150 c 0
 707 150 695 168 692 185 c 0
 675 287 616 360 556 360 c 2
 328 360 l 1
 241 201 158 16 142 -160 c 0
 141 -179 131 -199 112 -199 c 0
 96 -199 94 -177 94 -160 c 0xe2
 94 218 297 578 469 724 c 0
 470 725 471 727 471 728 c 0
 471 737 449 746 434 746 c 2
 319 746 l 2
 193 746 140 642 118 516 c 0
 112 490 107 452 90 452 c 0
 74 452 67 490 67 513 c 2xd4
EndSplineSet
Validated: 1
EndChar
StartChar: H
Encoding: 72 72 7
Width: 572
Flags: W
HStem: -82 34<27.0512 103.064> 343 56<373.5 455.474> 635 41<36.123 138.987 245.112 421.995> 733 20G<477.5 501.5>
VStem: 276 97<223.099 342.372> 423 90<599.162 726.5> 469 77<220.879 427.364>
LayerCount: 2
Fore
SplineSet
373 319 m 0xfa
 373 155 231 23 162 -68 c 0
 153 -79 143 -82 130 -82 c 2
 58 -82 l 2
 46 -82 26 -79 26 -68 c 0
 26 -60 44 -53 74 -48 c 0
 145 -36 276 195 276 343 c 0
 276 472 190 635 71 635 c 0
 55 635 36 643 36 657 c 4
 36 670 53 676 86 676 c 10
 347 676 l 18
 448 676 462 753 493 753 c 0
 510 753 513 734 513 719 c 0
 513 637 497 601 456 541 c 0
 445 525 426 507 419 507 c 0
 409 507 408 521 408 532 c 16
 408 542 423 572 423 600 c 0xfc
 423 626 422 635 382 635 c 10
 265 635 l 18
 249 635 245 626 245 611 c 0
 245 555 317 485 351 429 c 0
 365 404 383 399 393 399 c 10
 428 399 l 18
 445 399 456 410 456 424 c 0
 456 426 456 427 456 429 c 0
 453 445 450 460 450 464 c 0
 450 477 461 484 469 492 c 0
 489 511 491 529 501 529 c 0
 509 529 546 435 546 372 c 16
 546 264 509 163 481 104 c 0
 475 91 467 77 455 77 c 0
 446 77 444 86 444 95 c 0
 444 111 469 193 469 315 c 0
 469 335 454 343 428 343 c 10
 402 343 l 18
 384 343 373 332 373 319 c 0xfa
EndSplineSet
Validated: 1
EndChar
StartChar: I
Encoding: 73 73 8
Width: 620
Flags: W
HStem: -199 21G<285.5 305.5> -199 21G<285.5 305.5> 607 192<408.557 477.999> 662 137<188.7 265.501 356.061 395.818> 798 20G<100 121.5> 798 20G<100 121.5>
VStem: 77 51<454.115 588.233> 270 86<590.518 661.826> 270 46<-198.774 192.53>
LayerCount: 2
Fore
SplineSet
356 635 m 0x13
 356 625 376 577 411 568 c 0
 419 565 430 558 430 548 c 16
 430 532 413 521 405 512 c 0
 337 431 316 193 316 -16 c 18
 316 -141 l 10
 316 -164 315 -199 296 -199 c 0
 275 -199 270 -181 270 -140 c 10x9280
 270 618 l 2
 270 635 259 662 246 662 c 0x93
 214 662 150 642 128 516 c 0
 123 490 116 452 99 452 c 0
 82 452 77 490 77 513 c 2
 77 768 l 2
 77 782 85 818 115 818 c 0x0b
 128 818 200 799 240 799 c 10
 495 799 l 18x13
 526 799 543 795 543 778 c 0
 543 773 504 725 478 627 c 8
 475 618 474 607 462 607 c 8x23
 418 607 378 662 366 662 c 0
 357 662 356 647 356 635 c 0x13
EndSplineSet
Validated: 1
EndChar
StartChar: J
Encoding: 74 74 9
Width: 588
VWidth: 0
Flags: W
HStem: -82 31<270.032 362.64> 600 76<196.528 352.043> 635 41<444.266 534.927> 676 20G<67 82.5>
VStem: 59 37<306.375 456.145> 467 49<65.7969 443.649>
LayerCount: 2
Fore
SplineSet
516 316 m 2xcc
 516 -48 l 2
 516 -73 509 -82 498 -82 c 10
 295 -82 l 18
 281 -82 270 -78 270 -67 c 0
 270 -55 289 -51 299 -51 c 0
 417 -51 467 72 467 206 c 2
 467 278 l 2
 467 424 421 600 275 600 c 16xcc
 144 600 96 453 96 322 c 0
 96 311 95 299 86 299 c 16
 71 299 59 364 59 412 c 2
 59 658 l 2
 59 673 60 696 74 696 c 0x9c
 91 696 100 630 111 630 c 0
 128 630 142 676 253 676 c 2xcc
 485 676 l 2
 518 676 535 670 535 657 c 0
 535 643 524 635 500 635 c 0xac
 467 635 444 628 444 612 c 0
 444 608 446 604 448 600 c 0
 495 518 516 409 516 316 c 2xcc
EndSplineSet
Validated: 1
EndChar
StartChar: L
Encoding: 76 76 11
Width: 770
VWidth: 0
Flags: W
HStem: -198 40<562.986 687.983> 734 53<65.7712 130.987 263.008 565.622> 787 20G<655 680.5> 787 20G<655 680.5>
VStem: 369 64<-9.52645 380.094> 593 105<582.332 783>
LayerCount: 2
Fore
SplineSet
433 301 m 2xcc
 433 144 l 2
 433 -30 498 -158 651 -158 c 0
 664 -158 688 -163 688 -178 c 0
 688 -193 675 -198 656 -198 c 10
 393 -198 l 18
 378 -198 369 -186 369 -154 c 2
 369 176 l 2
 369 396 302 628 104 729 c 0
 78 743 65 745 65 763 c 0
 65 780 86 787 129 787 c 10
 542 787 l 26xcc
 593 787 641 807 669 807 c 0xac
 692 807 698 794 698 772 c 0
 698 631 682 533 594 470 c 0
 573 456 551 448 542 448 c 0
 529 448 520 457 520 469 c 16
 520 482 593 544 593 605 c 0
 593 693 578 734 489 734 c 2
 296 734 l 18
 274 734 263 728 263 721 c 0
 263 718 266 715 270 711 c 0
 382 620 433 499 433 301 c 2xcc
EndSplineSet
Validated: 1
EndChar
StartChar: M
Encoding: 77 77 12
Width: 820
Flags: W
HStem: 385 73<358.912 420.434> 749 52<79.5781 122.787 262.813 369.739 444.381 509.553 699.112 747.359>
VStem: 89 47<303.247 539.772> 123 136<609.152 743.758> 513 186<633.207 749.792> 632 91<253.407 584.054>
LayerCount: 2
Fore
SplineSet
89 422 m 0xe4
 89 632 123 701 123 723 c 0
 123 740 111 748 102 749 c 0
 92 750 79 761 79 774 c 0
 79 791 99 801 118 801 c 10
 314 801 l 18
 339 801 372 793 372 779 c 0
 372 762 346 756 320 753 c 0
 283 749 259 739 259 710 c 0
 259 605 315 519 372 467 c 0
 379 461 384 458 389 458 c 0
 395 458 400 462 408 468 c 0
 488 537 513 594 513 701 c 0
 513 731 502 749 483 752 c 0
 463 754 440 767 440 783 c 0
 440 799 463 801 504 801 c 10
 697 801 l 18
 720 801 749 795 749 779 c 0
 749 764 732 752 721 750 c 0
 700 748 699 739 699 719 c 0
 699 718 699 715 699 713 c 0xd8
 699 696 723 542 723 441 c 0
 723 185 597 -48 501 -174 c 0
 489 -188 476 -197 458 -197 c 8
 449 -197 441 -188 441 -179 c 16
 441 -169 446 -160 456 -148 c 0
 548 -20 632 128 632 311 c 0
 632 437 631 549 602 624 c 0
 600 634 588 634 584 620 c 0
 549 506 454 428 411 398 c 0
 402 392 391 385 383 385 c 0
 378 385 372 388 367 392 c 0
 328 427 240 494 206 587 c 0
 202 597 188 597 183 591 c 0
 157 556 136 479 136 403 c 0
 136 344 159 277 159 267 c 0
 159 258 157 247 145 247 c 0
 131 247 89 331 89 422 c 0xe4
EndSplineSet
Validated: 1
EndChar
StartChar: O
Encoding: 79 79 14
Width: 830
Flags: W
HStem: 276 200<391.134 458.984> 748 53<82.5545 173.792 326 450.466 667.542 753.413>
VStem: 87 120<253.737 487.293> 356 138<315.606 435.5> 628 104<253.407 469.417>
LayerCount: 2
Back
SplineSet
430.400390625 476.200195312 m 4x3e
 474.599609375 476.200195312 494.099609375 437.200195312 494.099609375 393 c 12
 494.099609375 337.099609375 460.299804688 276 414.799804688 276 c 12
 377.099609375 276 356.299804688 315 356.299804688 352.700195312 c 20
 356.299804688 408.599609375 388.799804688 476.200195312 430.400390625 476.200195312 c 4x3e
706 801.200195312 m 22
 728.099609375 801.200195312 758 794.700195312 758 779.099609375 c 4
 758 763.5 716.400390625 751.799804688 704.700195312 750.5 c 4
 681.299804688 747.900390625 665.700195312 737.5 665.700195312 712.799804688 c 4
 665.700195312 695.900390625 732 542.5 732 441.099609375 c 4
 732 185 605.900390625 -47.7001953125 509.700195312 -173.799804688 c 4
 498 -188.099609375 486.299804688 -197.200195312 468.099609375 -197.200195312 c 12xbe
 459 -197.200195312 449.900390625 -188.099609375 449.900390625 -179 c 20
 449.900390625 -168.599609375 456.400390625 -159.5 465.5 -147.799804688 c 4
 557.799804688 -20.400390625 628 127.799804688 628 311.099609375 c 4
 628 437.200195312 564.299804688 747.900390625 368 747.900390625 c 6
 326.400390625 747.900390625 l 6
 303 747.900390625 304.299804688 732.299804688 314.700195312 731 c 4
 355 723.200195312 375.799804688 706.299804688 375.799804688 695.900390625 c 4
 375.799804688 685.5 349.799804688 673.799804688 336.799804688 660.799804688 c 4
 238 562 206.799804688 461.900390625 206.799804688 329.299804688 c 4
 206.799804688 315 208.099609375 302 208.099609375 287.700195312 c 12
 214.599609375 136.900390625 269.200195312 49.7998046875 366.700195312 -65.900390625 c 12
 371.900390625 -72.400390625 377.099609375 -78.900390625 377.099609375 -84.099609375 c 12
 377.099609375 -94.5 364.099609375 -95.7998046875 355 -95.7998046875 c 12
 342 -95.7998046875 330.299804688 -93.2001953125 321.200195312 -84.099609375 c 4
 157.400390625 69.2998046875 87.2001953125 221.400390625 87.2001953125 443.700195312 c 4
 87.2001953125 543.799804688 104.099609375 590.599609375 165.200195312 697.200195312 c 4
 170.400390625 707.599609375 174.299804688 715.400390625 174.299804688 723.200195312 c 4
 174.299804688 736.200195312 162.599609375 745.299804688 127.5 747.900390625 c 4
 96.2998046875 750.5 82 758.299804688 82 776.5 c 4
 82 793.400390625 102.799804688 801.200195312 145.700195312 801.200195312 c 6
 706 801.200195312 l 22
EndSplineSet
Fore
SplineSet
430 476 m 0
 475 476 494 437 494 393 c 8
 494 337 460 276 415 276 c 8
 377 276 356 315 356 353 c 16
 356 409 389 476 430 476 c 0
706 801 m 18
 728 801 758 795 758 779 c 0
 758 764 716 752 705 750 c 0
 681 748 666 738 666 713 c 0
 666 696 732 542 732 441 c 0
 732 185 606 -48 510 -174 c 0
 498 -188 486 -197 468 -197 c 8
 459 -197 450 -188 450 -179 c 16
 450 -169 456 -160 466 -148 c 0
 558 -20 628 128 628 311 c 0
 628 437 564 748 368 748 c 2
 326 748 l 2
 303 748 304 732 315 731 c 0
 355 723 376 706 376 696 c 0
 376 686 350 674 337 661 c 0
 238 562 207 462 207 329 c 0
 207 315 208 302 208 288 c 8
 215 137 269 50 367 -66 c 8
 372 -72 377 -79 377 -84 c 8
 377 -94 364 -96 355 -96 c 8
 342 -96 330 -93 321 -84 c 0
 157 69 87 221 87 444 c 0
 87 544 104 591 165 697 c 0
 170 708 174 715 174 723 c 0
 174 736 163 745 128 748 c 0
 96 750 82 758 82 776 c 0
 82 793 103 801 146 801 c 2
 706 801 l 18
EndSplineSet
Validated: 1
EndChar
StartChar: Q
Encoding: 81 81 16
Width: 760
Flags: W
HStem: -199 21G<256 496> 113 74<169.655 328 437 593.9> 701 98<286.961 493.455> 798 20G<104 140.5 628 655.5> 798 20G<104 140.5 628 655.5>
VStem: 82 54<-23.7496 78.7324> 328 109<-4.76562 113 187 327.195> 628 47<-31.6226 72.4794>
LayerCount: 2
Fore
SplineSet
361 799 m 2xe7
 433 799 l 2xe7
 519 799 614 818 642 818 c 0
 643 818 643 818 645 818 c 0xd7
 666 817 688 808 688 796 c 0
 688 777 672 763 663 752 c 0
 541 612 438 430 434 187 c 1
 634 187 l 2
 669 187 675 174 675 157 c 2
 675 29 l 2
 675 1 672 -32 654 -32 c 0
 637 -32 632 -14 628 6 c 0
 610 85 590 113 534 113 c 2
 437 113 l 1
 451 -66 534 -155 534 -179 c 0
 534 -193 506 -199 486 -199 c 2
 268 -199 l 2
 244 -199 237 -193 237 -179 c 0
 237 -163 316 -64 328 113 c 1
 242 113 l 2
 187 113 156 98 136 28 c 0
 129 2 121 -29 100 -29 c 0
 86 -29 82 -8 82 46 c 2
 82 157 l 2
 82 186 93 187 106 187 c 0
 107 187 108 187 109 187 c 2
 329 187 l 1
 321 421 224 643 121 744 c 0
 104 761 75 776 75 799 c 0xe7
 75 808 91 817 117 818 c 0
 118 818 120 818 121 818 c 0xd7
 160 818 291 799 361 799 c 2xe7
385 701 m 0
 325 701 269 730 239 746 c 0
 227 752 224 738 227 733 c 0
 291 665 347 539 378 344 c 0
 382 322 393 323 396 344 c 0
 425 522 491 665 555 733 c 0
 565 743 556 752 545 746 c 0
 515 730 450 701 385 701 c 0
EndSplineSet
Validated: 1
EndChar
StartChar: S
Encoding: 83 83 18
Width: 494
Flags: HW
HStem: -92 618<31 197> 635 41<260.633 350.367> 671 20G<104.5 127.5> 671 20G<104.5 127.5>
VStem: 296 58<37.8112 232.005> 444 32<507.755 553.123>
LayerCount: 2
Fore
SplineSet
92 671 m 0x9c
 92 684 97 691 112 691 c 0xac
 143 691 205 676 252 676 c 10
 377 676 l 26
 399 676 422 672 429 662 c 0
 455 628 476 579 476 540 c 0
 476 520 472 507 466 507 c 8
 456 507 446 513 444 522 c 0
 436 568 350 635 267 635 c 0xcc
 256 635 253 626 261 621 c 0
 318 588 383 451 383 367 c 0
 383 365 383 362 383 360 c 0
 383 346 382 327 373 327 c 0
 363 327 360 337 356 346 c 0
 339 386 266 426 221 439 c 0
 217 440 215 431 218 428 c 0
 306 340 354 258 354 120 c 0
 354 34 278 -47 226 -81 c 0
 215 -88 208 -92 197 -92 c 8
 189 -92 184 -83 184 -75 c 24
 184 -65 193 -57 200 -53 c 0
 247 -26 296 36 296 104 c 0
 296 276 196 388 45 482 c 0
 33 490 19 495 19 510 c 0
 19 520 21 526 31 526 c 0
 153 526 202 505 267 478 c 0
 276 474 280 484 275 494 c 0
 252 541 195 592 111 641 c 0
 101 647 92 663 92 671 c 0x9c
EndSplineSet
Validated: 1
EndChar
StartChar: T
Encoding: 84 84 19
Width: 544
Flags: HW
HStem: 625 51<182.546 222.368> 847 31<103.011 190.331>
VStem: 63 37<86.7402 155.766> 103 407<676 863>
LayerCount: 2
Fore
SplineSet
54 676 m 2
 365 676 l 2
 377 676 387 682 385 691 c 0
 368 767 271 821 126 847 c 0
 115 849 103 850 103 863 c 0
 103 875 118 878 128 878 c 0
 268 878 510 784 510 676 c 0
 510 650 387 580 303 544 c 0
 296 541 287 544 282 551 c 0
 260 582 197 625 174 625 c 0
 166 625 167 618 174 611 c 0
 235 556 292 464 292 373 c 0
 292 231 277 116 252 12 c 1
 257 12 261 12 266 12 c 0
 358 12 392 54 461 120 c 0
 471 130 479 141 492 141 c 0
 502 141 505 134 505 124 c 0
 505 107 329 -124 233 -124 c 0
 145 -124 63 84 63 124 c 0
 63 139 68 156 79 156 c 0
 89 156 98 147 100 133 c 0
 108 81 152 35 211 19 c 1
 211 142 210 254 191 339 c 0
 158 486 93 572 53 621 c 0
 41 635 27 644 27 663 c 0
 27 674 43 676 54 676 c 2
EndSplineSet
Validated: 1
EndChar
StartChar: V
Encoding: 86 86 21
Width: 510
Flags: W
HStem: -92 21G<225 233.5> 620 56<219.288 282.185> 635 41<59.0727 130.993 378.013 431.589>
VStem: 28 87<138.156 417.033> 418 65<123.134 384.502>
LayerCount: 2
Fore
SplineSet
240 -69 m 8xd8
 244 -74 248 -79 248 -83 c 8
 248 -91 237 -92 230 -92 c 8
 220 -92 212 -90 205 -83 c 0
 79 35 28 126 28 297 c 0
 28 374 77 514 124 596 c 0
 128 604 131 611 131 617 c 0
 131 628 121 635 94 635 c 0
 70 635 59 643 59 657 c 0
 59 670 76 676 110 676 c 10
 392 676 l 18
 409 676 432 671 432 659 c 0
 432 647 420 636 411 635 c 0xb8
 396 633 378 627 378 615 c 0
 378 613 378 611 380 608 c 0
 446 504 483 426 483 293 c 0
 483 96 424 30 343 -55 c 0
 333 -65 324 -74 310 -74 c 8
 303 -74 297 -66 297 -59 c 16
 297 -51 300 -44 308 -36 c 0
 381 36 418 91 418 232 c 0
 418 329 383 504 272 609 c 0
 264 616 254 620 244 620 c 0
 235 620 226 616 222 608 c 8
 164 492 115 423 115 295 c 8
 115 145 164 21 240 -69 c 8xd8
EndSplineSet
Validated: 1
EndChar
StartChar: W
Encoding: 87 87 22
Width: 635
Flags: W
HStem: -82 34<130.051 209.285> 635 41<44.1366 127.476 365.087 524.995> 733 20G<580.5 604.5>
VStem: 31 100<254.12 383.451> 372 107<286.522 425.955> 526 89<597.29 726.5>
LayerCount: 2
Fore
SplineSet
479 394 m 0
 479 262 334 23 265 -68 c 0
 256 -79 245 -82 232 -82 c 2
 161 -82 l 2
 149 -82 129 -79 129 -68 c 0
 129 -60 147 -53 177 -48 c 0
 201 -44 229 -16 258 24 c 1
 148 101 31 239 31 336 c 0
 31 348 50 378 56 389 c 0
 86 440 128 536 128 596 c 0
 128 598 128 601 128 603 c 0
 128 625 126 635 89 635 c 0
 65 635 44 643 44 657 c 0
 44 670 60 676 95 676 c 2
 450 676 l 2
 551 676 565 753 596 753 c 0
 613 753 615 734 615 719 c 0
 615 637 600 601 559 541 c 0
 548 525 529 507 522 507 c 0
 512 507 511 521 511 532 c 0
 511 542 526 572 526 600 c 0
 526 626 525 635 485 635 c 2
 384 635 l 2
 368 635 365 626 365 611 c 0
 365 555 419 468 454 429 c 0
 473 407 479 407 479 394 c 0
278 54 m 1
 328 137 372 255 372 343 c 0
 372 472 325 551 255 611 c 0
 248 617 236 615 231 608 c 0
 175 532 131 460 131 332 c 0
 131 213 209 108 278 54 c 1
EndSplineSet
Validated: 1
EndChar
StartChar: Y
Encoding: 89 89 24
Width: 780
Flags: W
HStem: -199 35<464.033 612.984> 779 20G<663 678> 798 20G<148.5 167.5> 798 20G<148.5 167.5>
VStem: 80 108<-95.5 85.5> 342 55<-87.1323 90.5873>
LayerCount: 2
Fore
SplineSet
115 795 m 0xcc
 115 816 139 818 158 818 c 0xac
 177 818 217 799 256 799 c 2
 353 799 l 2
 369 799 380 790 380 778 c 0
 380 777 380 777 380 776 c 1
 362 701 l 2
 360 695 358 690 358 685 c 0
 358 668 366 652 375 652 c 0
 462 652 555 726 630 776 c 0
 640 782 654 799 672 799 c 0
 684 799 689 792 689 781 c 0
 689 766 683 760 667 750 c 0
 479 622 405 228 397 -129 c 1
 459 -149 528 -162 591 -164 c 0
 601 -164 613 -170 613 -181 c 0
 613 -199 591 -199 576 -199 c 0
 338 -199 80 -170 80 -21 c 0
 80 70 175 168 190 184 c 0
 199 193 206 200 217 200 c 0
 229 200 229 194 229 183 c 0
 229 167 188 107 188 64 c 0
 188 -6 246 -60 324 -99 c 1
 328 -37 342 46 342 136 c 0
 342 387 334 613 152 753 c 0
 136 766 115 781 115 795 c 0xcc
EndSplineSet
Validated: 1
EndChar
StartChar: bracketleft
Encoding: 91 91 26
Width: 380
Flags: W
HStem: 671 107<137 346.736>
VStem: 20 331<671 775.556> 20 117<101.417 671>
LayerCount: 2
Fore
SplineSet
79 94 m 0xa0
 66 94 20 103 20 116 c 2xa0
 20 745 l 2
 20 762 37 778 54 778 c 2
 332 777 l 2
 347 777 351 737 351 722 c 0xc0
 351 707 345 671 330 671 c 2
 137 671 l 1
 137 117 l 2
 137 104 92 94 79 94 c 0xa0
EndSplineSet
Validated: 1
EndChar
StartChar: bracketright
Encoding: 93 93 28
Width: 380
Flags: W
HStem: -167 106<9.26407 219>
VStem: 5 331<-165.556 -61> 219 117<-61 508.583>
LayerCount: 2
Fore
SplineSet
277 516 m 0xa0
 290 516 336 507 336 494 c 2xa0
 336 -135 l 2
 336 -152 319 -168 302 -168 c 2
 24 -167 l 2
 9 -167 5 -127 5 -112 c 0xc0
 5 -97 11 -61 26 -61 c 2
 219 -61 l 1
 219 493 l 2
 219 506 264 516 277 516 c 0xa0
EndSplineSet
Validated: 1
EndChar
StartChar: c
Encoding: 99 99 34
Width: 608
Flags: W
HStem: -92 21G<73 88.5 519 535.5> 635 41<120.999 486.997>
VStem: 61 60<590.452 634.967> 61 36<-91.8257 301.551> 487 60<584.521 635> 511 36<-91.5713 288.886>
LayerCount: 2
Fore
SplineSet
61 -46 m 10xd0
 61 657 l 2
 61 670 78 676 111 676 c 2
 507 676 l 2
 534 676 547 670 547 657 c 10
 547 -46 l 18
 547 -54 545 -92 526 -92 c 0
 512 -92 511 -77 511 -62 c 0
 511 -58 511 -52 511 -48 c 2
 511 86 l 10xd4
 511 259 477 425 401 517 c 0
 395 524 385 531 385 542 c 16
 385 549 394 555 403 557 c 16
 439 566 487 589 487 615 c 0
 487 630 483 635 468 635 c 2
 146 635 l 2
 119 635 121 630 121 618 c 0xe8
 121 600 180 561 207 554 c 0
 213 552 221 549 221 542 c 16
 221 530 207 520 201 513 c 0
 127 425 97 266 97 100 c 18
 97 -47 l 10
 97 -65 96 -92 81 -92 c 0
 65 -92 61 -78 61 -46 c 10xd0
EndSplineSet
Validated: 1
EndChar
StartChar: d
Encoding: 100 100 35
Width: 680
Flags: W
HStem: -199 21G<83 103> 746 72<327.792 450.866>
VStem: 67 47<-198.774 265.062> 408 62<404.28 548.5> 520 99<292.049 547.688>
LayerCount: 2
Fore
SplineSet
422 746 m 0
 148 746 114 302 114 50 c 2
 114 -141 l 10
 114 -164 113 -199 93 -199 c 0
 73 -199 67 -181 67 -140 c 10
 67 774 l 2
 67 791 90 799 132 799 c 2
 309 799 l 2
 383 799 409 818 431 818 c 0
 450 818 470 798 486 777 c 0
 572 662 619 516 619 396 c 0
 619 129 298 -193 252 -193 c 0
 239 -193 232 -189 232 -179 c 0
 232 -167 235 -162 244 -151 c 0
 270 -119 312 -27 318 66 c 0
 320 81 321 85 331 92 c 0
 437 154 520 271 520 419 c 0
 520 499 508 557 485 635 c 0
 485 636 484 637 482 637 c 0
 475 637 456 617 456 608 c 0
 456 599 470 557 470 540 c 0
 470 462 451 404 433 371 c 0
 428 361 421 347 409 347 c 8
 400 347 390 352 390 363 c 0
 390 375 408 426 408 452 c 0
 408 497 379 562 342 583 c 0
 331 588 320 596 320 608 c 0
 320 620 334 623 346 626 c 0
 402 638 451 678 451 731 c 0
 451 742 433 746 422 746 c 0
EndSplineSet
Validated: 1
EndChar
StartChar: e
Encoding: 101 101 36
Width: 730
VWidth: 0
Flags: W
HStem: -82 41<210 502> 270 81<126 456> 479 20G<70 83> 635 41<60 390>
VStem: 59 62<52 267> 59 39<387 500> 463 63<360 574> 498 29<119 201>
LayerCount: 2
Fore
SplineSet
632 790 m 2xf6
 654 790 666 779 666 765 c 10
 666 127 l 18
 666 96 665 66 648 66 c 8
 635 66 632 80 630 92 c 0
 614 185 592 262 511 262 c 18
 219 262 l 2
 166 262 141 258 141 205 c 0xf9
 141 -109 215 -142 450 -142 c 10
 598 -142 l 26
 615 -142 635 -155 635 -170 c 8
 635 -187 617 -196 600 -196 c 26
 93 -196 l 18
 69 -196 59 -181 59 -157 c 10
 59 501 l 18
 59 540 65 561 82 561 c 0
 98 561 106 540 110 518 c 0
 124 428 133 367 214 367 c 10
 453 367 l 18
 557 367 584 378 584 436 c 10
 584 524 l 2
 584 654 550 736 320 736 c 2
 104 736 l 2
 72 736 59 747 59 765 c 0
 59 782 81 790 124 790 c 2
 632 790 l 2xf6
EndSplineSet
Validated: 1
EndChar
StartChar: g
Encoding: 103 103 38
Width: 533
Flags: W
HStem: -92 21G<245.5 256> 635 41<161.791 314.999 417.014 498.807> 671 20G<58.5 75> 671 20G<58.5 75>
VStem: 41 39<409.513 530.518> 390 113<259.91 495.599>
LayerCount: 2
Fore
SplineSet
279 635 m 2xcc
 234 635 l 2xcc
 137 635 97 555 80 458 c 0
 76 438 71 409 58 409 c 0
 45 409 41 438 41 456 c 2
 41 652 l 2
 41 663 47 691 70 691 c 0xac
 80 691 135 676 166 676 c 2
 459 676 l 2
 476 676 499 673 499 657 c 0
 499 641 469 635 459 635 c 0
 436 635 417 633 417 621 c 0
 417 617 418 613 422 608 c 0
 452 566 503 487 503 399 c 8
 503 195 356 23 282 -74 c 0
 273 -85 263 -92 249 -92 c 8
 242 -92 236 -85 236 -78 c 16
 236 -70 239 -63 246 -54 c 0
 317 44 390 151 390 299 c 8
 390 426 374 525 315 615 c 0
 311 621 294 635 279 635 c 2xcc
EndSplineSet
Validated: 1
EndChar
StartChar: i
Encoding: 105 105 40
Width: 620
Flags: W
HStem: -92 22G<201 217> -92 22G<201 217> 528 22G<320 342> 571 104<121 188 255 292> 671 20G<58 75>
VStem: 41 39<409 517> 189 123<452 500> 189 66<510 571> 189 36<-92 253>
LayerCount: 2
Fore
SplineSet
356 635 m 0x35
 356 625 376 577 411 568 c 0
 419 565 430 558 430 548 c 16x36
 430 532 413 521 405 512 c 0
 337 431 316 193 316 -16 c 18
 316 -141 l 10
 316 -164 315 -199 296 -199 c 0
 275 -199 270 -181 270 -140 c 10xb480
 270 618 l 2
 270 635 259 662 246 662 c 0xb5
 214 662 150 642 128 516 c 0
 123 490 116 452 99 452 c 0
 82 452 77 490 77 513 c 2
 77 768 l 2
 77 782 85 818 115 818 c 0x2d
 128 818 200 799 240 799 c 10
 495 799 l 18
 526 799 543 795 543 778 c 0
 543 773 504 725 478 627 c 8
 475 618 474 607 462 607 c 8
 418 607 378 662 366 662 c 0
 357 662 356 647 356 635 c 0x35
EndSplineSet
Validated: 1
EndChar
StartChar: j
Encoding: 106 106 41
Width: 760
VWidth: 0
Flags: W
HStem: -82 31<231 324> 600 76<242 397> 635 41<60 149>
VStem: 78 49<66 443> 498 37<306 456>
LayerCount: 2
Fore
SplineSet
92 319 m 2xd8
 92 440 120 579 181 685 c 0
 183 690 187 696 187 700 c 0
 187 719 157 731 113 733 c 0
 82 736 68 744 68 762 c 0
 68 779 90 787 133 787 c 2xb8
 434 787 l 2
 578 787 597 727 619 727 c 0
 633 727 645 813 667 813 c 0
 685 813 686 783 686 763 c 2
 686 444 l 2
 686 381 671 297 651 297 c 8
 640 297 638 312 638 326 c 0
 638 497 576 688 406 688 c 8
 216 688 156 459 156 269 c 2
 156 176 l 2
 156 2 221 -158 374 -158 c 0
 387 -158 412 -164 412 -179 c 0
 412 -194 398 -199 380 -199 c 10
 116 -199 l 18
 101 -199 92 -187 92 -154 c 2
 92 319 l 2xd8
EndSplineSet
Validated: 1
EndChar
StartChar: k
Encoding: 107 107 42
Width: 526
Flags: W
HStem: -92 21G<258 270> 635 41<155.577 322.999 414.014 495.807> 671 20G<138 155> 671 20G<138 155>
VStem: 26 75<216.402 486.863> 251 37<70.2915 213.341> 438 61<216.678 435.646>
LayerCount: 2
Fore
SplineSet
101 409 m 0xce
 101 278 109 181 169 71 c 0
 183 45 202 22 210 22 c 0
 218 22 242 86 251 144 c 0
 254 166 260 215 273 215 c 0
 285 215 288 192 288 185 c 0
 288 115 288 4 288 -65 c 0
 288 -80 278 -92 262 -92 c 0
 254 -92 208 -48 186 -28 c 0
 90 64 26 228 26 357 c 0
 26 450 57 587 114 668 c 0
 116 670 132 691 144 691 c 0xae
 166 691 190 676 227 676 c 10
 456 676 l 2
 473 676 496 673 496 657 c 0
 496 641 466 635 456 635 c 0
 433 635 414 633 414 621 c 0
 414 617 415 613 419 608 c 0
 449 566 499 464 499 364 c 0
 499 245 468 166 394 77 c 0
 385 66 375 58 361 58 c 8
 354 58 348 66 348 73 c 16
 348 81 354 87 361 96 c 0
 405 152 438 214 438 299 c 0
 438 429 382 525 323 615 c 0
 319 621 302 635 287 635 c 2
 180 635 l 2
 153 635 155 630 155 618 c 0
 155 600 188 588 215 581 c 0
 221 579 229 573 229 565 c 16
 229 553 219 548 210 546 c 0
 142 529 101 479 101 409 c 0xce
EndSplineSet
Validated: 1
EndChar
StartChar: l
Encoding: 108 108 43
Width: 770
VWidth: 0
Flags: W
HStem: -82 31<391 487> 635 41<8 65 170 395> 671 20G<462 482>
VStem: 242 49<49 381> 414 81<505 674>
LayerCount: 2
Fore
SplineSet
433 301 m 2xd8
 433 144 l 2
 433 -30 498 -158 651 -158 c 0
 664 -158 688 -163 688 -178 c 0
 688 -193 675 -198 656 -198 c 10
 393 -198 l 18
 378 -198 369 -186 369 -154 c 2
 369 176 l 2
 369 396 302 628 104 729 c 0
 78 743 65 745 65 763 c 0
 65 780 86 787 129 787 c 10
 542 787 l 26xd8
 593 787 641 807 669 807 c 0xb8
 692 807 698 794 698 772 c 0
 698 631 682 533 594 470 c 0
 573 456 551 448 542 448 c 0
 529 448 520 457 520 469 c 16
 520 482 593 544 593 605 c 0
 593 693 578 734 489 734 c 2
 296 734 l 18
 274 734 263 728 263 721 c 0
 263 718 266 715 270 711 c 0
 382 620 433 499 433 301 c 2xd8
EndSplineSet
Validated: 1
EndChar
StartChar: m
Encoding: 109 109 44
Width: 820
Flags: W
HStem: -92 22G<315 326> -92 22G<315 326> 636 40<26 60 166 251 306 359>
VStem: 34 36<290 476> 60 104<520 634> 360 142<547 638> 452 71<237 538>
LayerCount: 2
Fore
SplineSet
89 422 m 0xb2
 89 632 123 701 123 723 c 0
 123 740 111 748 102 749 c 0
 92 750 79 761 79 774 c 0
 79 791 99 801 118 801 c 10
 314 801 l 18
 339 801 372 793 372 779 c 0
 372 762 346 756 320 753 c 0
 283 749 259 739 259 710 c 0
 259 605 315 519 372 467 c 0
 379 461 384 458 389 458 c 0
 395 458 400 462 408 468 c 0
 488 537 513 594 513 701 c 0
 513 731 502 749 483 752 c 0
 463 754 440 767 440 783 c 0
 440 799 463 801 504 801 c 10
 697 801 l 18
 720 801 749 795 749 779 c 0
 749 764 732 752 721 750 c 0
 700 748 699 739 699 719 c 0
 699 718 699 715 699 713 c 0xac
 699 696 723 542 723 441 c 0
 723 185 597 -48 501 -174 c 0
 489 -188 476 -197 458 -197 c 8
 449 -197 441 -188 441 -179 c 16
 441 -169 446 -160 456 -148 c 0
 548 -20 632 128 632 311 c 0
 632 437 631 549 602 624 c 0
 600 634 588 634 584 620 c 0
 549 506 454 428 411 398 c 0
 402 392 391 385 383 385 c 0
 378 385 372 388 367 392 c 0
 328 427 240 494 206 587 c 0
 202 597 188 597 183 591 c 0
 157 556 136 479 136 403 c 0
 136 344 159 277 159 267 c 0
 159 258 157 247 145 247 c 0
 131 247 89 331 89 422 c 0xb2
EndSplineSet
Validated: 1
EndChar
StartChar: o
Encoding: 111 111 46
Width: 830
Flags: W
HStem: -92 22G<323 334> -92 22G<323 334> 272 154<264 324> 635 41<30 101 209 319 480 549>
VStem: 34 93<235 453> 241 106<295 403> 450 81<237 442>
LayerCount: 2
Fore
SplineSet
430 476 m 0x3e
 475 476 494 437 494 393 c 8
 494 337 460 276 415 276 c 8
 377 276 356 315 356 353 c 16
 356 409 389 476 430 476 c 0x3e
706 801 m 18
 728 801 758 795 758 779 c 0
 758 764 716 752 705 750 c 0
 681 748 666 738 666 713 c 0
 666 696 732 542 732 441 c 0
 732 185 606 -48 510 -174 c 0
 498 -188 486 -197 468 -197 c 8xbe
 459 -197 450 -188 450 -179 c 16
 450 -169 456 -160 466 -148 c 0
 558 -20 628 128 628 311 c 0
 628 437 564 748 368 748 c 2
 326 748 l 2
 303 748 304 732 315 731 c 0
 355 723 376 706 376 696 c 0
 376 686 350 674 337 661 c 0
 238 562 207 462 207 329 c 0
 207 315 208 302 208 288 c 8
 215 137 269 50 367 -66 c 8
 372 -72 377 -79 377 -84 c 8
 377 -94 364 -96 355 -96 c 8
 342 -96 330 -93 321 -84 c 0
 157 69 87 221 87 444 c 0
 87 544 104 591 165 697 c 0
 170 708 174 715 174 723 c 0
 174 736 163 745 128 748 c 0
 96 750 82 758 82 776 c 0
 82 793 103 801 146 801 c 2
 706 801 l 18
EndSplineSet
Validated: 1
EndChar
StartChar: q
Encoding: 113 113 48
Width: 760
Flags: W
HStem: -92 22G<165 350> -92 22G<165 350> 148 56<93 220 304 428> 601 75<176 362>
VStem: 31 42<41 126> 220 84<43 148 205 305> 451 37<37 119>
LayerCount: 2
Fore
SplineSet
361 799 m 2xbe
 433 799 l 2
 519 799 614 818 642 818 c 0
 643 818 643 818 645 818 c 0
 666 817 688 808 688 796 c 0
 688 777 672 763 663 752 c 0
 541 612 438 430 434 187 c 1
 634 187 l 2
 669 187 675 174 675 157 c 2
 675 29 l 2
 675 1 672 -32 654 -32 c 0
 637 -32 632 -14 628 6 c 0
 610 85 590 113 534 113 c 2
 437 113 l 1
 451 -66 534 -155 534 -179 c 0
 534 -193 506 -199 486 -199 c 2
 268 -199 l 2
 244 -199 237 -193 237 -179 c 0
 237 -163 316 -64 328 113 c 1
 242 113 l 2
 187 113 156 98 136 28 c 0
 129 2 121 -29 100 -29 c 0
 86 -29 82 -8 82 46 c 2
 82 157 l 2
 82 186 93 187 106 187 c 0
 107 187 108 187 109 187 c 2
 329 187 l 1
 321 421 224 643 121 744 c 0
 104 761 75 776 75 799 c 0
 75 808 91 817 117 818 c 0
 118 818 120 818 121 818 c 0
 160 818 291 799 361 799 c 2xbe
385 701 m 0
 325 701 269 730 239 746 c 0
 227 752 224 738 227 733 c 0
 291 665 347 539 378 344 c 0
 382 322 393 323 396 344 c 0
 425 522 491 665 555 733 c 0
 565 743 556 752 545 746 c 0
 515 730 450 701 385 701 c 0
EndSplineSet
Validated: 1
EndChar
StartChar: t
Encoding: 116 116 51
Width: 660
Flags: W
HStem: 625 51<172 212> 847 31<93 180>
VStem: 53 37<87 155> 93 407<676 863>
LayerCount: 2
Fore
SplineSet
100 612 m 2
 417 612 l 2
 429 612 439 618 437 627 c 0
 420 705 321 760 173 786 c 0
 162 788 150 789 150 803 c 0
 150 815 165 818 175 818 c 0
 318 818 565 722 565 612 c 0
 565 585 439 514 354 477 c 0
 347 474 337 477 332 484 c 0
 310 516 246 560 222 560 c 0
 214 560 215 553 222 546 c 0
 284 490 342 396 342 303 c 0
 342 158 327 41 302 -65 c 1
 307 -65 311 -65 316 -65 c 0
 410 -64 444 -22 515 45 c 0
 525 55 533 66 546 66 c 0
 557 66 560 59 560 49 c 0
 560 32 380 -204 282 -204 c 0
 193 -204 109 8 109 49 c 0
 109 64 114 82 125 82 c 0
 135 82 145 72 147 58 c 0
 155 5 200 -42 260 -58 c 1
 260 67 259 182 239 268 c 0
 206 418 139 506 99 556 c 0
 86 570 72 579 72 599 c 0
 72 610 88 612 100 612 c 2
EndSplineSet
Validated: 1
EndChar
StartChar: u
Encoding: 117 117 52
Width: 770
VWidth: 0
Flags: W
HStem: -82 76<176 334> -82 41<424 514> 200 106<207 315> 637 39<459 528> 645 31<212 308>
VStem: 39 37<138 288> 184 154<223 283> 446 69<178 478>
LayerCount: 2
Fore
SplineSet
454 268 m 0x27
 454 226 387 194 331 194 c 8
 293 194 254 215 254 252 c 16
 254 298 315 332 371 332 c 16
 415 332 454 312 454 268 c 0x27
684 369 m 0
 684 247 631 35 570 -71 c 0
 567 -76 565 -82 565 -86 c 0
 565 -105 593 -117 638 -119 c 0
 669 -122 683 -130 683 -148 c 0
 683 -165 662 -173 619 -173 c 2x77
 317 -173 l 2
 172 -173 154 -113 132 -113 c 0
 118 -113 106 -199 84 -199 c 0
 66 -199 66 -170 66 -151 c 2
 66 170 l 2
 66 233 81 317 101 317 c 8
 112 317 114 302 114 288 c 0
 114 117 175 -74 345 -74 c 8
 544 -74 595 180 595 369 c 0
 595 551 515 772 328 772 c 0
 315 772 291 776 291 792 c 0
 291 806 305 813 323 813 c 10xaf
 648 813 l 18
 671 813 701 806 701 791 c 0
 701 775 660 763 648 762 c 0x37
 625 759 610 749 610 724 c 0
 610 707 684 638 684 369 c 0
EndSplineSet
Validated: 1
EndChar
StartChar: v
Encoding: 118 118 53
Width: 750
Flags: W
HStem: -92 22G<225 234> -92 22G<225 234> 635 41<60 131 378 432>
VStem: 28 87<138 417> 418 66<123 387>
LayerCount: 2
Fore
SplineSet
355 -167 m 8xb8
 361 -174 366 -180 366 -186 c 8
 366 -196 351 -197 342 -197 c 8
 329 -197 319 -195 310 -186 c 0
 146 -32 80 86 80 308 c 0
 80 409 143 591 205 697 c 0
 210 708 214 715 214 723 c 0
 214 736 201 745 166 748 c 0
 134 750 120 758 120 776 c 0
 120 793 142 801 186 801 c 10
 553 801 l 18
 575 801 605 795 605 779 c 0
 605 764 589 752 578 750 c 0
 558 748 533 738 533 723 c 0
 533 719 535 717 537 713 c 0
 623 578 671 476 671 303 c 0
 671 47 595 -39 489 -149 c 0
 476 -162 465 -174 446 -174 c 8
 437 -174 429 -163 429 -154 c 16
 429 -144 433 -135 444 -124 c 0
 539 -31 587 41 587 224 c 0
 587 350 541 578 397 714 c 0
 387 723 374 730 362 730 c 0
 350 730 337 723 332 713 c 8
 257 562 193 472 193 306 c 8
 193 111 257 -50 355 -167 c 8xb8
EndSplineSet
Validated: 1
EndChar
StartChar: x
Encoding: 120 120 55
Width: 790
Flags: W
HStem: -82 44<31 173 257 387>
VStem: 39 86<177 452> 516 91<188 507>
LayerCount: 2
Fore
SplineSet
451 782 m 0
 446 787 442 794 442 799 c 8
 442 807 448 814 456 814 c 8
 468 814 477 811 485 803 c 0
 629 669 718 481 718 286 c 0
 718 25 641 -95 601 -158 c 0
 581 -192 560 -205 526 -205 c 10
 103 -205 l 18
 84 -205 57 -200 57 -186 c 0
 57 -173 99 -161 109 -160 c 0
 128 -158 223 -145 223 -130 c 0
 223 -129 223 -128 222 -127 c 0
 140 -27 70 80 70 232 c 0
 70 457 183 573 254 650 c 0
 265 662 274 671 290 671 c 8
 298 671 306 663 306 655 c 16
 306 646 300 637 292 628 c 0
 223 548 168 461 168 301 c 0
 168 140 205 -29 317 -128 c 0
 321 -132 358 -154 373 -154 c 2
 437 -154 l 2
 445 -154 462 -150 467 -144 c 0
 549 -31 614 118 614 264 c 8
 614 476 556 644 451 782 c 0
EndSplineSet
Validated: 1
EndChar
StartChar: y
Encoding: 121 121 56
Width: 585
VWidth: 0
Flags: W
HStem: 5 137<261.127 339.75> 270 81<131.163 456.453> 635 41<59.0664 389.878>
VStem: 59 54<-23.7838 251.728> 59 39<387.046 499.895> 237 128<30.7286 117.631> 463 63<359.927 573.812> 498 28<119.017 201.288>
LayerCount: 2
Fore
SplineSet
300 142 m 4xe4
 334 142 365 129 365 95 c 4
 365 52 335 5 300 5 c 4
 271 5 237 26 237 55 c 4
 237 98 268 142 300 142 c 4xe4
498 676 m 2xed
 515 676 526 668 526 657 c 10
 526 166 l 18
 526 142 525 119 512 119 c 8
 502 119 500 130 498 139 c 0
 486 211 469 270 407 270 c 18
 182 270 l 2
 141 270 113 239 113 198 c 0xf5
 113 -44 82 -79 75 -81 c 0
 75 -81 74 -81 74 -81 c 0
 68 -81 59 -70 59 -52 c 2
 59 454 l 18
 59 484 64 500 77 500 c 0
 89 500 95 484 98 467 c 0
 109 398 116 351 178 351 c 10
 362 351 l 18
 442 351 463 359 463 404 c 10
 463 472 l 2xee
 463 572 437 635 260 635 c 2
 94 635 l 2
 69 635 59 643 59 657 c 0
 59 670 76 676 109 676 c 2
 498 676 l 2xed
EndSplineSet
Validated: 1
EndChar
StartChar: uni218A
Encoding: 8586 8586 96
Width: 952
VWidth: 1048
Flags: W
HStem: -204 21G<148.5 164.5 563.5 579.5 723.5 739.5> 296 122<325.056 471.055> 689 20G<172 177 587.5 592 747.5 752> 689 20G<172 177 587.5 592 747.5 752>
VStem: 139 45<-203.934 37.1345> 145 108<423.519 483.981> 152 118<484 542.736> 554 45<-203.934 37.1345> 567 118<389.525 541.506> 714 45<-203.934 37.1345> 727 118<389.525 541.506>
LayerCount: 2
Fore
SplineSet
761 698 m 0xe020
 783 643 802 582 816 554 c 0
 830 526 845 508 845 484 c 0xe020
 845 478 791 264 779 164 c 0
 766 52 759 -43 759 -178 c 0
 759 -203 745 -204 734 -204 c 0
 734 -204 733 -204 732 -204 c 0
 715 -204 714 -113 714 -55 c 0
 714 -20 714 16 714 51 c 0xe040
 714 99 717 144 717 189 c 0
 717 259 720 331 720 404 c 0
 720 457 727 496 727 540 c 0
 727 556 726 574 723 592 c 0
 722 599 702 590 704 597 c 0
 717 648 720 667 732 689 c 0xd020
 738 701 745 709 750 709 c 0
 754 709 757 705 761 698 c 0xe020
601 698 m 0
 623 643 642 582 656 554 c 0
 670 526 685 508 685 484 c 0xe080
 685 478 631 264 619 164 c 0
 606 52 599 -43 599 -178 c 0
 599 -203 585 -204 574 -204 c 0
 574 -204 573 -204 572 -204 c 0
 555 -204 554 -113 554 -55 c 0
 554 -20 554 16 554 51 c 0xe1
 554 99 557 144 557 189 c 0
 557 259 560 331 560 404 c 0
 560 457 567 496 567 540 c 0
 567 556 566 574 563 592 c 0
 562 599 542 590 544 597 c 0
 557 648 560 667 572 689 c 0xd080
 578 701 585 709 590 709 c 0
 594 709 597 705 601 698 c 0
533 426 m 0
 539 426 541 424 541 420 c 0
 541 409 519 397 513 372 c 0
 508 353 496 337 477 322 c 0
 458 308 415 296 386 296 c 0
 369 296 348 304 329 304 c 0
 309 304 263 309 263 309 c 1
 263 309 261 309 259 309 c 0
 250 309 228 308 223 296 c 0
 203 243 209 202 204 164 c 0
 191 52 184 -43 184 -178 c 0
 184 -203 170 -204 159 -204 c 0
 159 -204 158 -204 157 -204 c 0
 140 -204 139 -113 139 -55 c 2
 139 51 l 2xe8
 139 99 142 144 142 189 c 0
 142 259 145 331 145 404 c 0xe4
 145 456 152 496 152 539 c 0
 152 557 152 574 149 592 c 0
 148 599 127 590 129 597 c 0
 142 648 146 667 158 689 c 0xd2
 164 700 169 709 175 709 c 0
 179 709 182 705 186 698 c 0
 208 643 228 582 242 554 c 0
 256 526 270 508 270 484 c 0xe2
 270 484 253 458 253 441 c 0xe4
 253 437 253 434 255 432 c 0
 266 419 325 419 325 419 c 1
 325 419 402 418 430 418 c 2
 465 418 l 2
 493 418 521 426 533 426 c 0
EndSplineSet
Validated: 1
EndChar
StartChar: uni218B
Encoding: 8587 8587 96
Width: 1140
Flags: W
HStem: -191 21G<97 112 547 562 747 762 947 962> 352 132<288.061 442.815> 780 20G<123 128 573.5 578 773.5 778 973.5 978> 780 20G<123 128 573.5 578 773.5 778 973.5 978>
VStem: 87 49<-190.714 54.9163> 93 117<490.545 555.979> 101 128<556 614.822> 537 49<-190.714 54.9163> 551 128<460.894 625.5> 737 49<-190.714 54.9163> 751 128<460.894 625.5> 937 49<-190.714 54.9163> 951 128<460.894 625.5>
LayerCount: 2
Fore
SplineSet
988 788 m 4xe008
 1012 728 1033 662 1048 632 c 4
 1063 602 1079 582 1079 556 c 4xe008
 1079 550 1020 318 1007 209 c 4
 993 87 995 -15 986 -162 c 4
 984 -191 968 -191 956 -191 c 4
 938 -191 937 -92 937 -29 c 4
 937 9 937 48 937 86 c 4xe010
 937 138 938 187 940 236 c 4
 941 312 942 390 943 469 c 4
 944 526 951 569 951 617 c 4
 951 634 950 653 947 673 c 4
 946 681 924 670 926 678 c 4
 940 733 944 756 957 780 c 4xd008
 964 793 971 800 976 800 c 4
 980 800 984 796 988 788 c 4xe008
788 788 m 4
 812 728 833 662 848 632 c 4
 863 602 879 582 879 556 c 4xe020
 879 550 820 318 807 209 c 4
 793 87 795 -15 786 -162 c 4
 784 -191 768 -191 756 -191 c 4
 738 -191 737 -92 737 -29 c 4
 737 9 737 48 737 86 c 4xe040
 737 138 738 187 740 236 c 4
 741 312 742 390 743 469 c 4
 744 526 751 569 751 617 c 4
 751 634 750 653 747 673 c 4
 746 681 724 670 726 678 c 4
 740 733 744 756 757 780 c 4xd020
 764 793 771 800 776 800 c 4
 780 800 784 796 788 788 c 4
588 788 m 4
 612 728 633 662 648 632 c 4
 663 602 679 582 679 556 c 4xe080
 679 550 620 318 607 209 c 4
 593 87 595 -15 586 -162 c 4
 584 -191 568 -191 556 -191 c 4
 538 -191 537 -92 537 -29 c 4
 537 9 537 48 537 86 c 4xe1
 537 138 538 187 540 236 c 4
 541 312 542 390 543 469 c 4
 544 526 551 569 551 617 c 4
 551 634 550 653 547 673 c 4
 546 681 524 670 526 678 c 4
 540 733 544 756 557 780 c 4xd080
 564 793 571 800 576 800 c 4
 580 800 584 796 588 788 c 4
514 493 m 4
 520 493 523 490 523 486 c 4
 523 474 499 461 492 434 c 4
 487 413 474 396 453 380 c 4
 432 365 387 352 355 352 c 4
 337 352 314 359 293 360 c 4
 271 361 221 366 221 366 c 5
 221 366 184 366 178 350 c 4
 156 293 162 250 157 209 c 4
 143 87 145 -15 136 -162 c 4
 134 -191 118 -191 106 -191 c 4
 88 -191 87 -92 87 -29 c 6
 87 86 l 6xe8
 87 138 88 187 90 236 c 4
 91 312 92 390 93 469 c 4xe4
 94 525 101 569 101 616 c 4
 101 635 100 653 97 673 c 4
 96 681 74 670 76 678 c 4
 90 733 94 756 107 780 c 4xd2
 114 792 120 800 126 800 c 4
 130 800 134 796 138 788 c 4
 162 728 183 662 198 632 c 4
 213 602 229 582 229 556 c 4xe2
 229 556 210 527 210 509 c 4xe4
 210 505 211 501 213 499 c 4
 225 485 288 485 288 485 c 5
 288 485 372 484 402 484 c 6
 440 484 l 6
 470 484 501 493 514 493 c 4
EndSplineSet
Validated: 1
EndChar
